solid Entretoise M3 x 30
   facet normal 0.000000e+000 1.000000e+000 0.000000e+000
      outer loop
         vertex 9.641814e-001 3.000000e+001 1.149067e+000
         vertex 1.574830e+000 3.000000e+001 1.876809e+000
         vertex 1.149067e+000 3.000000e+001 9.641814e-001
      endloop
   endfacet
   facet normal 0.000000e+000 1.000000e+000 0.000000e+000
      outer loop
         vertex 1.149067e+000 3.000000e+001 9.641814e-001
         vertex 1.574830e+000 3.000000e+001 1.876809e+000
         vertex 1.876809e+000 3.000000e+001 1.574830e+000
      endloop
   endfacet
   facet normal 0.000000e+000 1.000000e+000 0.000000e+000
      outer loop
         vertex 1.149067e+000 3.000000e+001 9.641814e-001
         vertex 1.876809e+000 3.000000e+001 1.574830e+000
         vertex 1.299038e+000 3.000000e+001 7.500000e-001
      endloop
   endfacet
   facet normal 0.000000e+000 1.000000e+000 0.000000e+000
      outer loop
         vertex 1.299038e+000 3.000000e+001 7.500000e-001
         vertex 1.876809e+000 3.000000e+001 1.574830e+000
         vertex 2.121762e+000 3.000000e+001 1.225000e+000
      endloop
   endfacet
   facet normal 0.000000e+000 1.000000e+000 0.000000e+000
      outer loop
         vertex 1.299038e+000 3.000000e+001 7.500000e-001
         vertex 2.121762e+000 3.000000e+001 1.225000e+000
         vertex 1.409539e+000 3.000000e+001 5.130302e-001
      endloop
   endfacet
   facet normal 0.000000e+000 1.000000e+000 0.000000e+000
      outer loop
         vertex 1.409539e+000 3.000000e+001 5.130302e-001
         vertex 2.121762e+000 3.000000e+001 1.225000e+000
         vertex 2.302247e+000 3.000000e+001 8.379493e-001
      endloop
   endfacet
   facet normal 0.000000e+000 1.000000e+000 0.000000e+000
      outer loop
         vertex 1.409539e+000 3.000000e+001 5.130302e-001
         vertex 2.302247e+000 3.000000e+001 8.379493e-001
         vertex 1.477212e+000 3.000000e+001 2.604723e-001
      endloop
   endfacet
   facet normal 0.000000e+000 1.000000e+000 0.000000e+000
      outer loop
         vertex 1.477212e+000 3.000000e+001 2.604723e-001
         vertex 2.302247e+000 3.000000e+001 8.379493e-001
         vertex 2.412779e+000 3.000000e+001 4.254380e-001
      endloop
   endfacet
   facet normal 0.000000e+000 1.000000e+000 0.000000e+000
      outer loop
         vertex 1.477212e+000 3.000000e+001 2.604723e-001
         vertex 2.412779e+000 3.000000e+001 4.254380e-001
         vertex 1.500000e+000 3.000000e+001 -9.184851e-017
      endloop
   endfacet
   facet normal 0.000000e+000 1.000000e+000 0.000000e+000
      outer loop
         vertex 1.500000e+000 3.000000e+001 -9.184851e-017
         vertex 2.412779e+000 3.000000e+001 4.254380e-001
         vertex 2.450000e+000 3.000000e+001 -1.500192e-016
      endloop
   endfacet
   facet normal 0.000000e+000 1.000000e+000 0.000000e+000
      outer loop
         vertex 1.500000e+000 3.000000e+001 -9.184851e-017
         vertex 2.450000e+000 3.000000e+001 -1.500192e-016
         vertex 1.477212e+000 3.000000e+001 -2.604723e-001
      endloop
   endfacet
   facet normal 0.000000e+000 1.000000e+000 0.000000e+000
      outer loop
         vertex 1.477212e+000 3.000000e+001 -2.604723e-001
         vertex 2.450000e+000 3.000000e+001 -1.500192e-016
         vertex 2.412779e+000 3.000000e+001 -4.254380e-001
      endloop
   endfacet
   facet normal 0.000000e+000 1.000000e+000 0.000000e+000
      outer loop
         vertex 1.477212e+000 3.000000e+001 -2.604723e-001
         vertex 2.412779e+000 3.000000e+001 -4.254380e-001
         vertex 1.409539e+000 3.000000e+001 -5.130302e-001
      endloop
   endfacet
   facet normal 0.000000e+000 1.000000e+000 0.000000e+000
      outer loop
         vertex 1.409539e+000 3.000000e+001 -5.130302e-001
         vertex 2.412779e+000 3.000000e+001 -4.254380e-001
         vertex 2.302247e+000 3.000000e+001 -8.379493e-001
      endloop
   endfacet
   facet normal 0.000000e+000 1.000000e+000 0.000000e+000
      outer loop
         vertex 1.409539e+000 3.000000e+001 -5.130302e-001
         vertex 2.302247e+000 3.000000e+001 -8.379493e-001
         vertex 1.299038e+000 3.000000e+001 -7.500000e-001
      endloop
   endfacet
   facet normal 0.000000e+000 1.000000e+000 0.000000e+000
      outer loop
         vertex 1.299038e+000 3.000000e+001 -7.500000e-001
         vertex 2.302247e+000 3.000000e+001 -8.379493e-001
         vertex 2.121762e+000 3.000000e+001 -1.225000e+000
      endloop
   endfacet
   facet normal 0.000000e+000 1.000000e+000 0.000000e+000
      outer loop
         vertex 1.299038e+000 3.000000e+001 -7.500000e-001
         vertex 2.121762e+000 3.000000e+001 -1.225000e+000
         vertex 1.149067e+000 3.000000e+001 -9.641814e-001
      endloop
   endfacet
   facet normal 0.000000e+000 1.000000e+000 0.000000e+000
      outer loop
         vertex 1.149067e+000 3.000000e+001 -9.641814e-001
         vertex 2.121762e+000 3.000000e+001 -1.225000e+000
         vertex 1.876809e+000 3.000000e+001 -1.574830e+000
      endloop
   endfacet
   facet normal 0.000000e+000 1.000000e+000 0.000000e+000
      outer loop
         vertex 1.149067e+000 3.000000e+001 -9.641814e-001
         vertex 1.876809e+000 3.000000e+001 -1.574830e+000
         vertex 9.641814e-001 3.000000e+001 -1.149067e+000
      endloop
   endfacet
   facet normal 0.000000e+000 1.000000e+000 0.000000e+000
      outer loop
         vertex 9.641814e-001 3.000000e+001 -1.149067e+000
         vertex 1.876809e+000 3.000000e+001 -1.574830e+000
         vertex 1.574830e+000 3.000000e+001 -1.876809e+000
      endloop
   endfacet
   facet normal 0.000000e+000 1.000000e+000 0.000000e+000
      outer loop
         vertex 9.641814e-001 3.000000e+001 -1.149067e+000
         vertex 1.574830e+000 3.000000e+001 -1.876809e+000
         vertex 7.500000e-001 3.000000e+001 -1.299038e+000
      endloop
   endfacet
   facet normal 0.000000e+000 1.000000e+000 0.000000e+000
      outer loop
         vertex 7.500000e-001 3.000000e+001 -1.299038e+000
         vertex 1.574830e+000 3.000000e+001 -1.876809e+000
         vertex 1.225000e+000 3.000000e+001 -2.121762e+000
      endloop
   endfacet
   facet normal 0.000000e+000 1.000000e+000 0.000000e+000
      outer loop
         vertex 7.500000e-001 3.000000e+001 -1.299038e+000
         vertex 1.225000e+000 3.000000e+001 -2.121762e+000
         vertex 5.130302e-001 3.000000e+001 -1.409539e+000
      endloop
   endfacet
   facet normal 0.000000e+000 1.000000e+000 0.000000e+000
      outer loop
         vertex 5.130302e-001 3.000000e+001 -1.409539e+000
         vertex 1.225000e+000 3.000000e+001 -2.121762e+000
         vertex 8.379493e-001 3.000000e+001 -2.302247e+000
      endloop
   endfacet
   facet normal 0.000000e+000 1.000000e+000 0.000000e+000
      outer loop
         vertex 5.130302e-001 3.000000e+001 -1.409539e+000
         vertex 8.379493e-001 3.000000e+001 -2.302247e+000
         vertex 2.604723e-001 3.000000e+001 -1.477212e+000
      endloop
   endfacet
   facet normal 0.000000e+000 1.000000e+000 0.000000e+000
      outer loop
         vertex 2.604723e-001 3.000000e+001 -1.477212e+000
         vertex 8.379493e-001 3.000000e+001 -2.302247e+000
         vertex 4.254380e-001 3.000000e+001 -2.412779e+000
      endloop
   endfacet
   facet normal 0.000000e+000 1.000000e+000 0.000000e+000
      outer loop
         vertex 2.604723e-001 3.000000e+001 -1.477212e+000
         vertex 4.254380e-001 3.000000e+001 -2.412779e+000
         vertex 0.000000e+000 3.000000e+001 -1.500000e+000
      endloop
   endfacet
   facet normal 0.000000e+000 1.000000e+000 0.000000e+000
      outer loop
         vertex 0.000000e+000 3.000000e+001 -1.500000e+000
         vertex 4.254380e-001 3.000000e+001 -2.412779e+000
         vertex 0.000000e+000 3.000000e+001 -2.450000e+000
      endloop
   endfacet
   facet normal 0.000000e+000 1.000000e+000 0.000000e+000
      outer loop
         vertex 0.000000e+000 3.000000e+001 -1.500000e+000
         vertex 0.000000e+000 3.000000e+001 -2.450000e+000
         vertex -2.604723e-001 3.000000e+001 -1.477212e+000
      endloop
   endfacet
   facet normal 0.000000e+000 1.000000e+000 0.000000e+000
      outer loop
         vertex -2.604723e-001 3.000000e+001 -1.477212e+000
         vertex 0.000000e+000 3.000000e+001 -2.450000e+000
         vertex -4.254380e-001 3.000000e+001 -2.412779e+000
      endloop
   endfacet
   facet normal 0.000000e+000 1.000000e+000 0.000000e+000
      outer loop
         vertex -2.604723e-001 3.000000e+001 -1.477212e+000
         vertex -4.254380e-001 3.000000e+001 -2.412779e+000
         vertex -5.130302e-001 3.000000e+001 -1.409539e+000
      endloop
   endfacet
   facet normal 0.000000e+000 1.000000e+000 0.000000e+000
      outer loop
         vertex -5.130302e-001 3.000000e+001 -1.409539e+000
         vertex -4.254380e-001 3.000000e+001 -2.412779e+000
         vertex -8.379493e-001 3.000000e+001 -2.302247e+000
      endloop
   endfacet
   facet normal 0.000000e+000 1.000000e+000 0.000000e+000
      outer loop
         vertex -5.130302e-001 3.000000e+001 -1.409539e+000
         vertex -8.379493e-001 3.000000e+001 -2.302247e+000
         vertex -7.500000e-001 3.000000e+001 -1.299038e+000
      endloop
   endfacet
   facet normal 0.000000e+000 1.000000e+000 0.000000e+000
      outer loop
         vertex -7.500000e-001 3.000000e+001 -1.299038e+000
         vertex -8.379493e-001 3.000000e+001 -2.302247e+000
         vertex -1.225000e+000 3.000000e+001 -2.121762e+000
      endloop
   endfacet
   facet normal 0.000000e+000 1.000000e+000 0.000000e+000
      outer loop
         vertex -7.500000e-001 3.000000e+001 -1.299038e+000
         vertex -1.225000e+000 3.000000e+001 -2.121762e+000
         vertex -9.641814e-001 3.000000e+001 -1.149067e+000
      endloop
   endfacet
   facet normal 0.000000e+000 1.000000e+000 0.000000e+000
      outer loop
         vertex -9.641814e-001 3.000000e+001 -1.149067e+000
         vertex -1.225000e+000 3.000000e+001 -2.121762e+000
         vertex -1.574830e+000 3.000000e+001 -1.876809e+000
      endloop
   endfacet
   facet normal 0.000000e+000 1.000000e+000 0.000000e+000
      outer loop
         vertex -9.641814e-001 3.000000e+001 -1.149067e+000
         vertex -1.574830e+000 3.000000e+001 -1.876809e+000
         vertex -1.149067e+000 3.000000e+001 -9.641814e-001
      endloop
   endfacet
   facet normal 0.000000e+000 1.000000e+000 0.000000e+000
      outer loop
         vertex -1.149067e+000 3.000000e+001 -9.641814e-001
         vertex -1.574830e+000 3.000000e+001 -1.876809e+000
         vertex -1.876809e+000 3.000000e+001 -1.574830e+000
      endloop
   endfacet
   facet normal 0.000000e+000 1.000000e+000 0.000000e+000
      outer loop
         vertex -1.149067e+000 3.000000e+001 -9.641814e-001
         vertex -1.876809e+000 3.000000e+001 -1.574830e+000
         vertex -1.299038e+000 3.000000e+001 -7.500000e-001
      endloop
   endfacet
   facet normal 0.000000e+000 1.000000e+000 0.000000e+000
      outer loop
         vertex -1.299038e+000 3.000000e+001 -7.500000e-001
         vertex -1.876809e+000 3.000000e+001 -1.574830e+000
         vertex -2.121762e+000 3.000000e+001 -1.225000e+000
      endloop
   endfacet
   facet normal 0.000000e+000 1.000000e+000 0.000000e+000
      outer loop
         vertex -1.299038e+000 3.000000e+001 -7.500000e-001
         vertex -2.121762e+000 3.000000e+001 -1.225000e+000
         vertex -1.409539e+000 3.000000e+001 -5.130302e-001
      endloop
   endfacet
   facet normal 0.000000e+000 1.000000e+000 0.000000e+000
      outer loop
         vertex -1.409539e+000 3.000000e+001 -5.130302e-001
         vertex -2.121762e+000 3.000000e+001 -1.225000e+000
         vertex -2.302247e+000 3.000000e+001 -8.379493e-001
      endloop
   endfacet
   facet normal 0.000000e+000 1.000000e+000 0.000000e+000
      outer loop
         vertex -1.409539e+000 3.000000e+001 -5.130302e-001
         vertex -2.302247e+000 3.000000e+001 -8.379493e-001
         vertex -1.477212e+000 3.000000e+001 -2.604723e-001
      endloop
   endfacet
   facet normal 0.000000e+000 1.000000e+000 0.000000e+000
      outer loop
         vertex -1.477212e+000 3.000000e+001 -2.604723e-001
         vertex -2.302247e+000 3.000000e+001 -8.379493e-001
         vertex -2.412779e+000 3.000000e+001 -4.254380e-001
      endloop
   endfacet
   facet normal 0.000000e+000 1.000000e+000 0.000000e+000
      outer loop
         vertex -1.477212e+000 3.000000e+001 -2.604723e-001
         vertex -2.412779e+000 3.000000e+001 -4.254380e-001
         vertex -1.500000e+000 3.000000e+001 2.755455e-016
      endloop
   endfacet
   facet normal 0.000000e+000 1.000000e+000 0.000000e+000
      outer loop
         vertex -1.500000e+000 3.000000e+001 2.755455e-016
         vertex -2.412779e+000 3.000000e+001 -4.254380e-001
         vertex -2.450000e+000 3.000000e+001 4.500577e-016
      endloop
   endfacet
   facet normal 0.000000e+000 1.000000e+000 0.000000e+000
      outer loop
         vertex -1.500000e+000 3.000000e+001 2.755455e-016
         vertex -2.450000e+000 3.000000e+001 4.500577e-016
         vertex -1.477212e+000 3.000000e+001 2.604723e-001
      endloop
   endfacet
   facet normal 0.000000e+000 1.000000e+000 0.000000e+000
      outer loop
         vertex -1.477212e+000 3.000000e+001 2.604723e-001
         vertex -2.450000e+000 3.000000e+001 4.500577e-016
         vertex -2.412779e+000 3.000000e+001 4.254380e-001
      endloop
   endfacet
   facet normal 0.000000e+000 1.000000e+000 0.000000e+000
      outer loop
         vertex -1.477212e+000 3.000000e+001 2.604723e-001
         vertex -2.412779e+000 3.000000e+001 4.254380e-001
         vertex -1.409539e+000 3.000000e+001 5.130302e-001
      endloop
   endfacet
   facet normal 0.000000e+000 1.000000e+000 0.000000e+000
      outer loop
         vertex -1.409539e+000 3.000000e+001 5.130302e-001
         vertex -2.412779e+000 3.000000e+001 4.254380e-001
         vertex -2.302247e+000 3.000000e+001 8.379493e-001
      endloop
   endfacet
   facet normal 0.000000e+000 1.000000e+000 0.000000e+000
      outer loop
         vertex -1.409539e+000 3.000000e+001 5.130302e-001
         vertex -2.302247e+000 3.000000e+001 8.379493e-001
         vertex -1.299038e+000 3.000000e+001 7.500000e-001
      endloop
   endfacet
   facet normal 0.000000e+000 1.000000e+000 0.000000e+000
      outer loop
         vertex -1.299038e+000 3.000000e+001 7.500000e-001
         vertex -2.302247e+000 3.000000e+001 8.379493e-001
         vertex -2.121762e+000 3.000000e+001 1.225000e+000
      endloop
   endfacet
   facet normal 0.000000e+000 1.000000e+000 0.000000e+000
      outer loop
         vertex -1.299038e+000 3.000000e+001 7.500000e-001
         vertex -2.121762e+000 3.000000e+001 1.225000e+000
         vertex -1.149067e+000 3.000000e+001 9.641814e-001
      endloop
   endfacet
   facet normal 0.000000e+000 1.000000e+000 0.000000e+000
      outer loop
         vertex -1.149067e+000 3.000000e+001 9.641814e-001
         vertex -2.121762e+000 3.000000e+001 1.225000e+000
         vertex -1.876809e+000 3.000000e+001 1.574830e+000
      endloop
   endfacet
   facet normal 0.000000e+000 1.000000e+000 0.000000e+000
      outer loop
         vertex -1.149067e+000 3.000000e+001 9.641814e-001
         vertex -1.876809e+000 3.000000e+001 1.574830e+000
         vertex -9.641814e-001 3.000000e+001 1.149067e+000
      endloop
   endfacet
   facet normal 0.000000e+000 1.000000e+000 0.000000e+000
      outer loop
         vertex -9.641814e-001 3.000000e+001 1.149067e+000
         vertex -1.876809e+000 3.000000e+001 1.574830e+000
         vertex -1.574830e+000 3.000000e+001 1.876809e+000
      endloop
   endfacet
   facet normal 0.000000e+000 1.000000e+000 0.000000e+000
      outer loop
         vertex -9.641814e-001 3.000000e+001 1.149067e+000
         vertex -1.574830e+000 3.000000e+001 1.876809e+000
         vertex -7.500000e-001 3.000000e+001 1.299038e+000
      endloop
   endfacet
   facet normal 0.000000e+000 1.000000e+000 0.000000e+000
      outer loop
         vertex -7.500000e-001 3.000000e+001 1.299038e+000
         vertex -1.574830e+000 3.000000e+001 1.876809e+000
         vertex -1.225000e+000 3.000000e+001 2.121762e+000
      endloop
   endfacet
   facet normal 0.000000e+000 1.000000e+000 0.000000e+000
      outer loop
         vertex -7.500000e-001 3.000000e+001 1.299038e+000
         vertex -1.225000e+000 3.000000e+001 2.121762e+000
         vertex -5.130302e-001 3.000000e+001 1.409539e+000
      endloop
   endfacet
   facet normal 0.000000e+000 1.000000e+000 0.000000e+000
      outer loop
         vertex -5.130302e-001 3.000000e+001 1.409539e+000
         vertex -1.225000e+000 3.000000e+001 2.121762e+000
         vertex -8.379493e-001 3.000000e+001 2.302247e+000
      endloop
   endfacet
   facet normal 0.000000e+000 1.000000e+000 0.000000e+000
      outer loop
         vertex -5.130302e-001 3.000000e+001 1.409539e+000
         vertex -8.379493e-001 3.000000e+001 2.302247e+000
         vertex -2.604723e-001 3.000000e+001 1.477212e+000
      endloop
   endfacet
   facet normal 0.000000e+000 1.000000e+000 0.000000e+000
      outer loop
         vertex -2.604723e-001 3.000000e+001 1.477212e+000
         vertex -8.379493e-001 3.000000e+001 2.302247e+000
         vertex -4.254380e-001 3.000000e+001 2.412779e+000
      endloop
   endfacet
   facet normal 0.000000e+000 1.000000e+000 0.000000e+000
      outer loop
         vertex -2.604723e-001 3.000000e+001 1.477212e+000
         vertex -4.254380e-001 3.000000e+001 2.412779e+000
         vertex 5.510910e-016 3.000000e+001 1.500000e+000
      endloop
   endfacet
   facet normal 0.000000e+000 1.000000e+000 0.000000e+000
      outer loop
         vertex 5.510910e-016 3.000000e+001 1.500000e+000
         vertex -4.254380e-001 3.000000e+001 2.412779e+000
         vertex 3.000385e-016 3.000000e+001 2.450000e+000
      endloop
   endfacet
   facet normal 0.000000e+000 1.000000e+000 0.000000e+000
      outer loop
         vertex 5.510910e-016 3.000000e+001 1.500000e+000
         vertex 3.000385e-016 3.000000e+001 2.450000e+000
         vertex 2.604723e-001 3.000000e+001 1.477212e+000
      endloop
   endfacet
   facet normal 0.000000e+000 1.000000e+000 0.000000e+000
      outer loop
         vertex 2.604723e-001 3.000000e+001 1.477212e+000
         vertex 3.000385e-016 3.000000e+001 2.450000e+000
         vertex 4.254380e-001 3.000000e+001 2.412779e+000
      endloop
   endfacet
   facet normal 0.000000e+000 1.000000e+000 0.000000e+000
      outer loop
         vertex 2.604723e-001 3.000000e+001 1.477212e+000
         vertex 4.254380e-001 3.000000e+001 2.412779e+000
         vertex 5.130302e-001 3.000000e+001 1.409539e+000
      endloop
   endfacet
   facet normal 0.000000e+000 1.000000e+000 0.000000e+000
      outer loop
         vertex 5.130302e-001 3.000000e+001 1.409539e+000
         vertex 4.254380e-001 3.000000e+001 2.412779e+000
         vertex 8.379493e-001 3.000000e+001 2.302247e+000
      endloop
   endfacet
   facet normal 0.000000e+000 1.000000e+000 0.000000e+000
      outer loop
         vertex 5.130302e-001 3.000000e+001 1.409539e+000
         vertex 8.379493e-001 3.000000e+001 2.302247e+000
         vertex 7.500000e-001 3.000000e+001 1.299038e+000
      endloop
   endfacet
   facet normal 0.000000e+000 1.000000e+000 0.000000e+000
      outer loop
         vertex 7.500000e-001 3.000000e+001 1.299038e+000
         vertex 8.379493e-001 3.000000e+001 2.302247e+000
         vertex 1.225000e+000 3.000000e+001 2.121762e+000
      endloop
   endfacet
   facet normal 0.000000e+000 1.000000e+000 0.000000e+000
      outer loop
         vertex 7.500000e-001 3.000000e+001 1.299038e+000
         vertex 1.225000e+000 3.000000e+001 2.121762e+000
         vertex 9.641814e-001 3.000000e+001 1.149067e+000
      endloop
   endfacet
   facet normal 0.000000e+000 1.000000e+000 0.000000e+000
      outer loop
         vertex 9.641814e-001 3.000000e+001 1.149067e+000
         vertex 1.225000e+000 3.000000e+001 2.121762e+000
         vertex 1.574830e+000 3.000000e+001 1.876809e+000
      endloop
   endfacet
   facet normal 0.000000e+000 -1.000000e+000 0.000000e+000
      outer loop
         vertex 1.836970e-016 0.000000e+000 1.500000e+000
         vertex 9.001154e-016 0.000000e+000 2.450000e+000
         vertex -2.604723e-001 0.000000e+000 1.477212e+000
      endloop
   endfacet
   facet normal 0.000000e+000 -1.000000e+000 0.000000e+000
      outer loop
         vertex -2.604723e-001 0.000000e+000 1.477212e+000
         vertex 9.001154e-016 0.000000e+000 2.450000e+000
         vertex -4.254380e-001 0.000000e+000 2.412779e+000
      endloop
   endfacet
   facet normal 0.000000e+000 -1.000000e+000 0.000000e+000
      outer loop
         vertex -2.604723e-001 0.000000e+000 1.477212e+000
         vertex -4.254380e-001 0.000000e+000 2.412779e+000
         vertex -5.130302e-001 0.000000e+000 1.409539e+000
      endloop
   endfacet
   facet normal 0.000000e+000 -1.000000e+000 0.000000e+000
      outer loop
         vertex -5.130302e-001 0.000000e+000 1.409539e+000
         vertex -4.254380e-001 0.000000e+000 2.412779e+000
         vertex -8.379493e-001 0.000000e+000 2.302247e+000
      endloop
   endfacet
   facet normal 0.000000e+000 -1.000000e+000 0.000000e+000
      outer loop
         vertex -5.130302e-001 0.000000e+000 1.409539e+000
         vertex -8.379493e-001 0.000000e+000 2.302247e+000
         vertex -7.500000e-001 0.000000e+000 1.299038e+000
      endloop
   endfacet
   facet normal 0.000000e+000 -1.000000e+000 0.000000e+000
      outer loop
         vertex -7.500000e-001 0.000000e+000 1.299038e+000
         vertex -8.379493e-001 0.000000e+000 2.302247e+000
         vertex -1.225000e+000 0.000000e+000 2.121762e+000
      endloop
   endfacet
   facet normal 0.000000e+000 -1.000000e+000 0.000000e+000
      outer loop
         vertex -7.500000e-001 0.000000e+000 1.299038e+000
         vertex -1.225000e+000 0.000000e+000 2.121762e+000
         vertex -9.641814e-001 0.000000e+000 1.149067e+000
      endloop
   endfacet
   facet normal 0.000000e+000 -1.000000e+000 0.000000e+000
      outer loop
         vertex -9.641814e-001 0.000000e+000 1.149067e+000
         vertex -1.225000e+000 0.000000e+000 2.121762e+000
         vertex -1.574830e+000 0.000000e+000 1.876809e+000
      endloop
   endfacet
   facet normal 0.000000e+000 -1.000000e+000 0.000000e+000
      outer loop
         vertex -9.641814e-001 0.000000e+000 1.149067e+000
         vertex -1.574830e+000 0.000000e+000 1.876809e+000
         vertex -1.149067e+000 0.000000e+000 9.641814e-001
      endloop
   endfacet
   facet normal 0.000000e+000 -1.000000e+000 0.000000e+000
      outer loop
         vertex -1.149067e+000 0.000000e+000 9.641814e-001
         vertex -1.574830e+000 0.000000e+000 1.876809e+000
         vertex -1.876809e+000 0.000000e+000 1.574830e+000
      endloop
   endfacet
   facet normal 0.000000e+000 -1.000000e+000 0.000000e+000
      outer loop
         vertex -1.149067e+000 0.000000e+000 9.641814e-001
         vertex -1.876809e+000 0.000000e+000 1.574830e+000
         vertex -1.299038e+000 0.000000e+000 7.500000e-001
      endloop
   endfacet
   facet normal 0.000000e+000 -1.000000e+000 0.000000e+000
      outer loop
         vertex -1.299038e+000 0.000000e+000 7.500000e-001
         vertex -1.876809e+000 0.000000e+000 1.574830e+000
         vertex -2.121762e+000 0.000000e+000 1.225000e+000
      endloop
   endfacet
   facet normal 0.000000e+000 -1.000000e+000 0.000000e+000
      outer loop
         vertex -1.299038e+000 0.000000e+000 7.500000e-001
         vertex -2.121762e+000 0.000000e+000 1.225000e+000
         vertex -1.409539e+000 0.000000e+000 5.130302e-001
      endloop
   endfacet
   facet normal 0.000000e+000 -1.000000e+000 0.000000e+000
      outer loop
         vertex -1.409539e+000 0.000000e+000 5.130302e-001
         vertex -2.121762e+000 0.000000e+000 1.225000e+000
         vertex -2.302247e+000 0.000000e+000 8.379493e-001
      endloop
   endfacet
   facet normal 0.000000e+000 -1.000000e+000 0.000000e+000
      outer loop
         vertex -1.409539e+000 0.000000e+000 5.130302e-001
         vertex -2.302247e+000 0.000000e+000 8.379493e-001
         vertex -1.477212e+000 0.000000e+000 2.604723e-001
      endloop
   endfacet
   facet normal 0.000000e+000 -1.000000e+000 0.000000e+000
      outer loop
         vertex -1.477212e+000 0.000000e+000 2.604723e-001
         vertex -2.302247e+000 0.000000e+000 8.379493e-001
         vertex -2.412779e+000 0.000000e+000 4.254380e-001
      endloop
   endfacet
   facet normal 0.000000e+000 -1.000000e+000 0.000000e+000
      outer loop
         vertex -1.477212e+000 0.000000e+000 2.604723e-001
         vertex -2.412779e+000 0.000000e+000 4.254380e-001
         vertex -1.500000e+000 0.000000e+000 2.755455e-016
      endloop
   endfacet
   facet normal 0.000000e+000 -1.000000e+000 0.000000e+000
      outer loop
         vertex -1.500000e+000 0.000000e+000 2.755455e-016
         vertex -2.412779e+000 0.000000e+000 4.254380e-001
         vertex -2.450000e+000 0.000000e+000 4.500577e-016
      endloop
   endfacet
   facet normal 0.000000e+000 -1.000000e+000 0.000000e+000
      outer loop
         vertex -1.500000e+000 0.000000e+000 2.755455e-016
         vertex -2.450000e+000 0.000000e+000 4.500577e-016
         vertex -1.477212e+000 0.000000e+000 -2.604723e-001
      endloop
   endfacet
   facet normal 0.000000e+000 -1.000000e+000 0.000000e+000
      outer loop
         vertex -1.477212e+000 0.000000e+000 -2.604723e-001
         vertex -2.450000e+000 0.000000e+000 4.500577e-016
         vertex -2.412779e+000 0.000000e+000 -4.254380e-001
      endloop
   endfacet
   facet normal 0.000000e+000 -1.000000e+000 0.000000e+000
      outer loop
         vertex -1.477212e+000 0.000000e+000 -2.604723e-001
         vertex -2.412779e+000 0.000000e+000 -4.254380e-001
         vertex -1.409539e+000 0.000000e+000 -5.130302e-001
      endloop
   endfacet
   facet normal 0.000000e+000 -1.000000e+000 0.000000e+000
      outer loop
         vertex -1.409539e+000 0.000000e+000 -5.130302e-001
         vertex -2.412779e+000 0.000000e+000 -4.254380e-001
         vertex -2.302247e+000 0.000000e+000 -8.379493e-001
      endloop
   endfacet
   facet normal 0.000000e+000 -1.000000e+000 0.000000e+000
      outer loop
         vertex -1.409539e+000 0.000000e+000 -5.130302e-001
         vertex -2.302247e+000 0.000000e+000 -8.379493e-001
         vertex -1.299038e+000 0.000000e+000 -7.500000e-001
      endloop
   endfacet
   facet normal 0.000000e+000 -1.000000e+000 0.000000e+000
      outer loop
         vertex -1.299038e+000 0.000000e+000 -7.500000e-001
         vertex -2.302247e+000 0.000000e+000 -8.379493e-001
         vertex -2.121762e+000 0.000000e+000 -1.225000e+000
      endloop
   endfacet
   facet normal 0.000000e+000 -1.000000e+000 0.000000e+000
      outer loop
         vertex -1.299038e+000 0.000000e+000 -7.500000e-001
         vertex -2.121762e+000 0.000000e+000 -1.225000e+000
         vertex -1.149067e+000 0.000000e+000 -9.641814e-001
      endloop
   endfacet
   facet normal 0.000000e+000 -1.000000e+000 0.000000e+000
      outer loop
         vertex -1.149067e+000 0.000000e+000 -9.641814e-001
         vertex -2.121762e+000 0.000000e+000 -1.225000e+000
         vertex -1.876809e+000 0.000000e+000 -1.574830e+000
      endloop
   endfacet
   facet normal 0.000000e+000 -1.000000e+000 0.000000e+000
      outer loop
         vertex -1.149067e+000 0.000000e+000 -9.641814e-001
         vertex -1.876809e+000 0.000000e+000 -1.574830e+000
         vertex -9.641814e-001 0.000000e+000 -1.149067e+000
      endloop
   endfacet
   facet normal 0.000000e+000 -1.000000e+000 0.000000e+000
      outer loop
         vertex -9.641814e-001 0.000000e+000 -1.149067e+000
         vertex -1.876809e+000 0.000000e+000 -1.574830e+000
         vertex -1.574830e+000 0.000000e+000 -1.876809e+000
      endloop
   endfacet
   facet normal 0.000000e+000 -1.000000e+000 0.000000e+000
      outer loop
         vertex -9.641814e-001 0.000000e+000 -1.149067e+000
         vertex -1.574830e+000 0.000000e+000 -1.876809e+000
         vertex -7.500000e-001 0.000000e+000 -1.299038e+000
      endloop
   endfacet
   facet normal 0.000000e+000 -1.000000e+000 0.000000e+000
      outer loop
         vertex -7.500000e-001 0.000000e+000 -1.299038e+000
         vertex -1.574830e+000 0.000000e+000 -1.876809e+000
         vertex -1.225000e+000 0.000000e+000 -2.121762e+000
      endloop
   endfacet
   facet normal 0.000000e+000 -1.000000e+000 0.000000e+000
      outer loop
         vertex -7.500000e-001 0.000000e+000 -1.299038e+000
         vertex -1.225000e+000 0.000000e+000 -2.121762e+000
         vertex -5.130302e-001 0.000000e+000 -1.409539e+000
      endloop
   endfacet
   facet normal 0.000000e+000 -1.000000e+000 0.000000e+000
      outer loop
         vertex -5.130302e-001 0.000000e+000 -1.409539e+000
         vertex -1.225000e+000 0.000000e+000 -2.121762e+000
         vertex -8.379493e-001 0.000000e+000 -2.302247e+000
      endloop
   endfacet
   facet normal 0.000000e+000 -1.000000e+000 0.000000e+000
      outer loop
         vertex -5.130302e-001 0.000000e+000 -1.409539e+000
         vertex -8.379493e-001 0.000000e+000 -2.302247e+000
         vertex -2.604723e-001 0.000000e+000 -1.477212e+000
      endloop
   endfacet
   facet normal 0.000000e+000 -1.000000e+000 0.000000e+000
      outer loop
         vertex -2.604723e-001 0.000000e+000 -1.477212e+000
         vertex -8.379493e-001 0.000000e+000 -2.302247e+000
         vertex -4.254380e-001 0.000000e+000 -2.412779e+000
      endloop
   endfacet
   facet normal 0.000000e+000 -1.000000e+000 0.000000e+000
      outer loop
         vertex -2.604723e-001 0.000000e+000 -1.477212e+000
         vertex -4.254380e-001 0.000000e+000 -2.412779e+000
         vertex 0.000000e+000 0.000000e+000 -1.500000e+000
      endloop
   endfacet
   facet normal 0.000000e+000 -1.000000e+000 0.000000e+000
      outer loop
         vertex 0.000000e+000 0.000000e+000 -1.500000e+000
         vertex -4.254380e-001 0.000000e+000 -2.412779e+000
         vertex 0.000000e+000 0.000000e+000 -2.450000e+000
      endloop
   endfacet
   facet normal 0.000000e+000 -1.000000e+000 0.000000e+000
      outer loop
         vertex 0.000000e+000 0.000000e+000 -1.500000e+000
         vertex 0.000000e+000 0.000000e+000 -2.450000e+000
         vertex 2.604723e-001 0.000000e+000 -1.477212e+000
      endloop
   endfacet
   facet normal 0.000000e+000 -1.000000e+000 0.000000e+000
      outer loop
         vertex 2.604723e-001 0.000000e+000 -1.477212e+000
         vertex 0.000000e+000 0.000000e+000 -2.450000e+000
         vertex 4.254380e-001 0.000000e+000 -2.412779e+000
      endloop
   endfacet
   facet normal 0.000000e+000 -1.000000e+000 0.000000e+000
      outer loop
         vertex 2.604723e-001 0.000000e+000 -1.477212e+000
         vertex 4.254380e-001 0.000000e+000 -2.412779e+000
         vertex 5.130302e-001 0.000000e+000 -1.409539e+000
      endloop
   endfacet
   facet normal 0.000000e+000 -1.000000e+000 0.000000e+000
      outer loop
         vertex 5.130302e-001 0.000000e+000 -1.409539e+000
         vertex 4.254380e-001 0.000000e+000 -2.412779e+000
         vertex 8.379493e-001 0.000000e+000 -2.302247e+000
      endloop
   endfacet
   facet normal 0.000000e+000 -1.000000e+000 0.000000e+000
      outer loop
         vertex 5.130302e-001 0.000000e+000 -1.409539e+000
         vertex 8.379493e-001 0.000000e+000 -2.302247e+000
         vertex 7.500000e-001 0.000000e+000 -1.299038e+000
      endloop
   endfacet
   facet normal 0.000000e+000 -1.000000e+000 0.000000e+000
      outer loop
         vertex 7.500000e-001 0.000000e+000 -1.299038e+000
         vertex 8.379493e-001 0.000000e+000 -2.302247e+000
         vertex 1.225000e+000 0.000000e+000 -2.121762e+000
      endloop
   endfacet
   facet normal 0.000000e+000 -1.000000e+000 0.000000e+000
      outer loop
         vertex 7.500000e-001 0.000000e+000 -1.299038e+000
         vertex 1.225000e+000 0.000000e+000 -2.121762e+000
         vertex 9.641814e-001 0.000000e+000 -1.149067e+000
      endloop
   endfacet
   facet normal 0.000000e+000 -1.000000e+000 0.000000e+000
      outer loop
         vertex 9.641814e-001 0.000000e+000 -1.149067e+000
         vertex 1.225000e+000 0.000000e+000 -2.121762e+000
         vertex 1.574830e+000 0.000000e+000 -1.876809e+000
      endloop
   endfacet
   facet normal 0.000000e+000 -1.000000e+000 0.000000e+000
      outer loop
         vertex 9.641814e-001 0.000000e+000 -1.149067e+000
         vertex 1.574830e+000 0.000000e+000 -1.876809e+000
         vertex 1.149067e+000 0.000000e+000 -9.641814e-001
      endloop
   endfacet
   facet normal 0.000000e+000 -1.000000e+000 0.000000e+000
      outer loop
         vertex 1.149067e+000 0.000000e+000 -9.641814e-001
         vertex 1.574830e+000 0.000000e+000 -1.876809e+000
         vertex 1.876809e+000 0.000000e+000 -1.574830e+000
      endloop
   endfacet
   facet normal 0.000000e+000 -1.000000e+000 0.000000e+000
      outer loop
         vertex 1.149067e+000 0.000000e+000 -9.641814e-001
         vertex 1.876809e+000 0.000000e+000 -1.574830e+000
         vertex 1.299038e+000 0.000000e+000 -7.500000e-001
      endloop
   endfacet
   facet normal 0.000000e+000 -1.000000e+000 0.000000e+000
      outer loop
         vertex 1.299038e+000 0.000000e+000 -7.500000e-001
         vertex 1.876809e+000 0.000000e+000 -1.574830e+000
         vertex 2.121762e+000 0.000000e+000 -1.225000e+000
      endloop
   endfacet
   facet normal 0.000000e+000 -1.000000e+000 0.000000e+000
      outer loop
         vertex 1.299038e+000 0.000000e+000 -7.500000e-001
         vertex 2.121762e+000 0.000000e+000 -1.225000e+000
         vertex 1.409539e+000 0.000000e+000 -5.130302e-001
      endloop
   endfacet
   facet normal 0.000000e+000 -1.000000e+000 0.000000e+000
      outer loop
         vertex 1.409539e+000 0.000000e+000 -5.130302e-001
         vertex 2.121762e+000 0.000000e+000 -1.225000e+000
         vertex 2.302247e+000 0.000000e+000 -8.379493e-001
      endloop
   endfacet
   facet normal 0.000000e+000 -1.000000e+000 0.000000e+000
      outer loop
         vertex 1.409539e+000 0.000000e+000 -5.130302e-001
         vertex 2.302247e+000 0.000000e+000 -8.379493e-001
         vertex 1.477212e+000 0.000000e+000 -2.604723e-001
      endloop
   endfacet
   facet normal 0.000000e+000 -1.000000e+000 0.000000e+000
      outer loop
         vertex 1.477212e+000 0.000000e+000 -2.604723e-001
         vertex 2.302247e+000 0.000000e+000 -8.379493e-001
         vertex 2.412779e+000 0.000000e+000 -4.254380e-001
      endloop
   endfacet
   facet normal 0.000000e+000 -1.000000e+000 0.000000e+000
      outer loop
         vertex 1.477212e+000 0.000000e+000 -2.604723e-001
         vertex 2.412779e+000 0.000000e+000 -4.254380e-001
         vertex 1.500000e+000 0.000000e+000 -9.184851e-017
      endloop
   endfacet
   facet normal 0.000000e+000 -1.000000e+000 0.000000e+000
      outer loop
         vertex 1.500000e+000 0.000000e+000 -9.184851e-017
         vertex 2.412779e+000 0.000000e+000 -4.254380e-001
         vertex 2.450000e+000 0.000000e+000 -1.500192e-016
      endloop
   endfacet
   facet normal 0.000000e+000 -1.000000e+000 0.000000e+000
      outer loop
         vertex 1.500000e+000 0.000000e+000 -9.184851e-017
         vertex 2.450000e+000 0.000000e+000 -1.500192e-016
         vertex 1.477212e+000 0.000000e+000 2.604723e-001
      endloop
   endfacet
   facet normal 0.000000e+000 -1.000000e+000 0.000000e+000
      outer loop
         vertex 1.477212e+000 0.000000e+000 2.604723e-001
         vertex 2.450000e+000 0.000000e+000 -1.500192e-016
         vertex 2.412779e+000 0.000000e+000 4.254380e-001
      endloop
   endfacet
   facet normal 0.000000e+000 -1.000000e+000 0.000000e+000
      outer loop
         vertex 1.477212e+000 0.000000e+000 2.604723e-001
         vertex 2.412779e+000 0.000000e+000 4.254380e-001
         vertex 1.409539e+000 0.000000e+000 5.130302e-001
      endloop
   endfacet
   facet normal 0.000000e+000 -1.000000e+000 0.000000e+000
      outer loop
         vertex 1.409539e+000 0.000000e+000 5.130302e-001
         vertex 2.412779e+000 0.000000e+000 4.254380e-001
         vertex 2.302247e+000 0.000000e+000 8.379493e-001
      endloop
   endfacet
   facet normal 0.000000e+000 -1.000000e+000 0.000000e+000
      outer loop
         vertex 1.409539e+000 0.000000e+000 5.130302e-001
         vertex 2.302247e+000 0.000000e+000 8.379493e-001
         vertex 1.299038e+000 0.000000e+000 7.500000e-001
      endloop
   endfacet
   facet normal 0.000000e+000 -1.000000e+000 0.000000e+000
      outer loop
         vertex 1.299038e+000 0.000000e+000 7.500000e-001
         vertex 2.302247e+000 0.000000e+000 8.379493e-001
         vertex 2.121762e+000 0.000000e+000 1.225000e+000
      endloop
   endfacet
   facet normal 0.000000e+000 -1.000000e+000 0.000000e+000
      outer loop
         vertex 1.299038e+000 0.000000e+000 7.500000e-001
         vertex 2.121762e+000 0.000000e+000 1.225000e+000
         vertex 1.149067e+000 0.000000e+000 9.641814e-001
      endloop
   endfacet
   facet normal 0.000000e+000 -1.000000e+000 0.000000e+000
      outer loop
         vertex 1.149067e+000 0.000000e+000 9.641814e-001
         vertex 2.121762e+000 0.000000e+000 1.225000e+000
         vertex 1.876809e+000 0.000000e+000 1.574830e+000
      endloop
   endfacet
   facet normal 0.000000e+000 -1.000000e+000 0.000000e+000
      outer loop
         vertex 1.149067e+000 0.000000e+000 9.641814e-001
         vertex 1.876809e+000 0.000000e+000 1.574830e+000
         vertex 9.641814e-001 0.000000e+000 1.149067e+000
      endloop
   endfacet
   facet normal 0.000000e+000 -1.000000e+000 0.000000e+000
      outer loop
         vertex 9.641814e-001 0.000000e+000 1.149067e+000
         vertex 1.876809e+000 0.000000e+000 1.574830e+000
         vertex 1.574830e+000 0.000000e+000 1.876809e+000
      endloop
   endfacet
   facet normal 0.000000e+000 -1.000000e+000 0.000000e+000
      outer loop
         vertex 9.641814e-001 0.000000e+000 1.149067e+000
         vertex 1.574830e+000 0.000000e+000 1.876809e+000
         vertex 7.500000e-001 0.000000e+000 1.299038e+000
      endloop
   endfacet
   facet normal 0.000000e+000 -1.000000e+000 0.000000e+000
      outer loop
         vertex 7.500000e-001 0.000000e+000 1.299038e+000
         vertex 1.574830e+000 0.000000e+000 1.876809e+000
         vertex 1.225000e+000 0.000000e+000 2.121762e+000
      endloop
   endfacet
   facet normal 0.000000e+000 -1.000000e+000 0.000000e+000
      outer loop
         vertex 7.500000e-001 0.000000e+000 1.299038e+000
         vertex 1.225000e+000 0.000000e+000 2.121762e+000
         vertex 5.130302e-001 0.000000e+000 1.409539e+000
      endloop
   endfacet
   facet normal 0.000000e+000 -1.000000e+000 0.000000e+000
      outer loop
         vertex 5.130302e-001 0.000000e+000 1.409539e+000
         vertex 1.225000e+000 0.000000e+000 2.121762e+000
         vertex 8.379493e-001 0.000000e+000 2.302247e+000
      endloop
   endfacet
   facet normal 0.000000e+000 -1.000000e+000 0.000000e+000
      outer loop
         vertex 5.130302e-001 0.000000e+000 1.409539e+000
         vertex 8.379493e-001 0.000000e+000 2.302247e+000
         vertex 2.604723e-001 0.000000e+000 1.477212e+000
      endloop
   endfacet
   facet normal 0.000000e+000 -1.000000e+000 0.000000e+000
      outer loop
         vertex 2.604723e-001 0.000000e+000 1.477212e+000
         vertex 8.379493e-001 0.000000e+000 2.302247e+000
         vertex 4.254380e-001 0.000000e+000 2.412779e+000
      endloop
   endfacet
   facet normal 0.000000e+000 -1.000000e+000 0.000000e+000
      outer loop
         vertex 2.604723e-001 0.000000e+000 1.477212e+000
         vertex 4.254380e-001 0.000000e+000 2.412779e+000
         vertex 1.836970e-016 0.000000e+000 1.500000e+000
      endloop
   endfacet
   facet normal 0.000000e+000 -1.000000e+000 0.000000e+000
      outer loop
         vertex 1.836970e-016 0.000000e+000 1.500000e+000
         vertex 4.254380e-001 0.000000e+000 2.412779e+000
         vertex 9.001154e-016 0.000000e+000 2.450000e+000
      endloop
   endfacet
   facet normal 1.161583e-001 0.000000e+000 -9.932307e-001
      outer loop
         vertex 0.000000e+000 0.000000e+000 -2.450000e+000
         vertex 4.254380e-001 3.000000e+001 -2.412779e+000
         vertex 4.254380e-001 0.000000e+000 -2.412779e+000
      endloop
   endfacet
   facet normal 2.305519e-001 0.000000e+000 -9.730600e-001
      outer loop
         vertex 4.254380e-001 0.000000e+000 -2.412779e+000
         vertex 4.254380e-001 3.000000e+001 -2.412779e+000
         vertex 8.379493e-001 3.000000e+001 -2.302247e+000
      endloop
   endfacet
   facet normal 2.868663e-001 0.000000e+000 -9.579706e-001
      outer loop
         vertex 4.254380e-001 0.000000e+000 -2.412779e+000
         vertex 8.379493e-001 3.000000e+001 -2.302247e+000
         vertex 8.379493e-001 0.000000e+000 -2.302247e+000
      endloop
   endfacet
   facet normal 3.960194e-001 0.000000e+000 -9.182422e-001
      outer loop
         vertex 8.379493e-001 0.000000e+000 -2.302247e+000
         vertex 8.379493e-001 3.000000e+001 -2.302247e+000
         vertex 1.225000e+000 3.000000e+001 -2.121762e+000
      endloop
   endfacet
   facet normal 4.488580e-001 0.000000e+000 -8.936031e-001
      outer loop
         vertex 8.379493e-001 0.000000e+000 -2.302247e+000
         vertex 1.225000e+000 3.000000e+001 -2.121762e+000
         vertex 1.225000e+000 0.000000e+000 -2.121762e+000
      endloop
   endfacet
   facet normal 5.494540e-001 0.000000e+000 -8.355240e-001
      outer loop
         vertex 1.225000e+000 0.000000e+000 -2.121762e+000
         vertex 1.225000e+000 3.000000e+001 -2.121762e+000
         vertex 1.574830e+000 3.000000e+001 -1.876809e+000
      endloop
   endfacet
   facet normal 5.972114e-001 0.000000e+000 -8.020838e-001
      outer loop
         vertex 1.225000e+000 0.000000e+000 -2.121762e+000
         vertex 1.574830e+000 3.000000e+001 -1.876809e+000
         vertex 1.574830e+000 0.000000e+000 -1.876809e+000
      endloop
   endfacet
   facet normal 6.861938e-001 0.000000e+000 -7.274188e-001
      outer loop
         vertex 1.574830e+000 0.000000e+000 -1.876809e+000
         vertex 1.574830e+000 3.000000e+001 -1.876809e+000
         vertex 1.876809e+000 3.000000e+001 -1.574830e+000
      endloop
   endfacet
   facet normal 7.274188e-001 0.000000e+000 -6.861938e-001
      outer loop
         vertex 1.574830e+000 0.000000e+000 -1.876809e+000
         vertex 1.876809e+000 3.000000e+001 -1.574830e+000
         vertex 1.876809e+000 0.000000e+000 -1.574830e+000
      endloop
   endfacet
   facet normal 8.020838e-001 0.000000e+000 -5.972114e-001
      outer loop
         vertex 1.876809e+000 0.000000e+000 -1.574830e+000
         vertex 1.876809e+000 3.000000e+001 -1.574830e+000
         vertex 2.121762e+000 3.000000e+001 -1.225000e+000
      endloop
   endfacet
   facet normal 8.355240e-001 0.000000e+000 -5.494540e-001
      outer loop
         vertex 1.876809e+000 0.000000e+000 -1.574830e+000
         vertex 2.121762e+000 3.000000e+001 -1.225000e+000
         vertex 2.121762e+000 0.000000e+000 -1.225000e+000
      endloop
   endfacet
   facet normal 8.936031e-001 0.000000e+000 -4.488580e-001
      outer loop
         vertex 2.121762e+000 0.000000e+000 -1.225000e+000
         vertex 2.121762e+000 3.000000e+001 -1.225000e+000
         vertex 2.302247e+000 3.000000e+001 -8.379493e-001
      endloop
   endfacet
   facet normal 9.182422e-001 0.000000e+000 -3.960194e-001
      outer loop
         vertex 2.121762e+000 0.000000e+000 -1.225000e+000
         vertex 2.302247e+000 3.000000e+001 -8.379493e-001
         vertex 2.302247e+000 0.000000e+000 -8.379493e-001
      endloop
   endfacet
   facet normal 9.579706e-001 0.000000e+000 -2.868663e-001
      outer loop
         vertex 2.302247e+000 0.000000e+000 -8.379493e-001
         vertex 2.302247e+000 3.000000e+001 -8.379493e-001
         vertex 2.412779e+000 3.000000e+001 -4.254380e-001
      endloop
   endfacet
   facet normal 9.730600e-001 0.000000e+000 -2.305519e-001
      outer loop
         vertex 2.302247e+000 0.000000e+000 -8.379493e-001
         vertex 2.412779e+000 3.000000e+001 -4.254380e-001
         vertex 2.412779e+000 0.000000e+000 -4.254380e-001
      endloop
   endfacet
   facet normal 9.932307e-001 0.000000e+000 -1.161583e-001
      outer loop
         vertex 2.412779e+000 0.000000e+000 -4.254380e-001
         vertex 2.412779e+000 3.000000e+001 -4.254380e-001
         vertex 2.450000e+000 3.000000e+001 -1.500192e-016
      endloop
   endfacet
   facet normal 9.983119e-001 0.000000e+000 -5.807913e-002
      outer loop
         vertex 2.412779e+000 0.000000e+000 -4.254380e-001
         vertex 2.450000e+000 3.000000e+001 -1.500192e-016
         vertex 2.450000e+000 0.000000e+000 -1.500192e-016
      endloop
   endfacet
   facet normal 9.983119e-001 0.000000e+000 5.807913e-002
      outer loop
         vertex 2.450000e+000 0.000000e+000 -1.500192e-016
         vertex 2.450000e+000 3.000000e+001 -1.500192e-016
         vertex 2.412779e+000 3.000000e+001 4.254380e-001
      endloop
   endfacet
   facet normal 9.932307e-001 0.000000e+000 1.161583e-001
      outer loop
         vertex 2.450000e+000 0.000000e+000 -1.500192e-016
         vertex 2.412779e+000 3.000000e+001 4.254380e-001
         vertex 2.412779e+000 0.000000e+000 4.254380e-001
      endloop
   endfacet
   facet normal 9.730600e-001 0.000000e+000 2.305519e-001
      outer loop
         vertex 2.412779e+000 0.000000e+000 4.254380e-001
         vertex 2.412779e+000 3.000000e+001 4.254380e-001
         vertex 2.302247e+000 3.000000e+001 8.379493e-001
      endloop
   endfacet
   facet normal 9.579706e-001 0.000000e+000 2.868663e-001
      outer loop
         vertex 2.412779e+000 0.000000e+000 4.254380e-001
         vertex 2.302247e+000 3.000000e+001 8.379493e-001
         vertex 2.302247e+000 0.000000e+000 8.379493e-001
      endloop
   endfacet
   facet normal 9.182422e-001 0.000000e+000 3.960194e-001
      outer loop
         vertex 2.302247e+000 0.000000e+000 8.379493e-001
         vertex 2.302247e+000 3.000000e+001 8.379493e-001
         vertex 2.121762e+000 3.000000e+001 1.225000e+000
      endloop
   endfacet
   facet normal 8.936031e-001 0.000000e+000 4.488580e-001
      outer loop
         vertex 2.302247e+000 0.000000e+000 8.379493e-001
         vertex 2.121762e+000 3.000000e+001 1.225000e+000
         vertex 2.121762e+000 0.000000e+000 1.225000e+000
      endloop
   endfacet
   facet normal 8.355240e-001 0.000000e+000 5.494540e-001
      outer loop
         vertex 2.121762e+000 0.000000e+000 1.225000e+000
         vertex 2.121762e+000 3.000000e+001 1.225000e+000
         vertex 1.876809e+000 3.000000e+001 1.574830e+000
      endloop
   endfacet
   facet normal 8.020838e-001 0.000000e+000 5.972114e-001
      outer loop
         vertex 2.121762e+000 0.000000e+000 1.225000e+000
         vertex 1.876809e+000 3.000000e+001 1.574830e+000
         vertex 1.876809e+000 0.000000e+000 1.574830e+000
      endloop
   endfacet
   facet normal 7.274188e-001 0.000000e+000 6.861938e-001
      outer loop
         vertex 1.876809e+000 0.000000e+000 1.574830e+000
         vertex 1.876809e+000 3.000000e+001 1.574830e+000
         vertex 1.574830e+000 3.000000e+001 1.876809e+000
      endloop
   endfacet
   facet normal 6.861938e-001 0.000000e+000 7.274188e-001
      outer loop
         vertex 1.876809e+000 0.000000e+000 1.574830e+000
         vertex 1.574830e+000 3.000000e+001 1.876809e+000
         vertex 1.574830e+000 0.000000e+000 1.876809e+000
      endloop
   endfacet
   facet normal 5.972114e-001 0.000000e+000 8.020838e-001
      outer loop
         vertex 1.574830e+000 0.000000e+000 1.876809e+000
         vertex 1.574830e+000 3.000000e+001 1.876809e+000
         vertex 1.225000e+000 3.000000e+001 2.121762e+000
      endloop
   endfacet
   facet normal 5.494540e-001 0.000000e+000 8.355240e-001
      outer loop
         vertex 1.574830e+000 0.000000e+000 1.876809e+000
         vertex 1.225000e+000 3.000000e+001 2.121762e+000
         vertex 1.225000e+000 0.000000e+000 2.121762e+000
      endloop
   endfacet
   facet normal 4.488580e-001 0.000000e+000 8.936031e-001
      outer loop
         vertex 1.225000e+000 0.000000e+000 2.121762e+000
         vertex 1.225000e+000 3.000000e+001 2.121762e+000
         vertex 8.379493e-001 3.000000e+001 2.302247e+000
      endloop
   endfacet
   facet normal 3.960194e-001 0.000000e+000 9.182422e-001
      outer loop
         vertex 1.225000e+000 0.000000e+000 2.121762e+000
         vertex 8.379493e-001 3.000000e+001 2.302247e+000
         vertex 8.379493e-001 0.000000e+000 2.302247e+000
      endloop
   endfacet
   facet normal 2.868663e-001 0.000000e+000 9.579706e-001
      outer loop
         vertex 8.379493e-001 0.000000e+000 2.302247e+000
         vertex 8.379493e-001 3.000000e+001 2.302247e+000
         vertex 4.254380e-001 3.000000e+001 2.412779e+000
      endloop
   endfacet
   facet normal 2.305519e-001 0.000000e+000 9.730600e-001
      outer loop
         vertex 8.379493e-001 0.000000e+000 2.302247e+000
         vertex 4.254380e-001 3.000000e+001 2.412779e+000
         vertex 4.254380e-001 0.000000e+000 2.412779e+000
      endloop
   endfacet
   facet normal 1.161583e-001 0.000000e+000 9.932307e-001
      outer loop
         vertex 4.254380e-001 0.000000e+000 2.412779e+000
         vertex 4.254380e-001 3.000000e+001 2.412779e+000
         vertex 3.000385e-016 3.000000e+001 2.450000e+000
      endloop
   endfacet
   facet normal 5.807913e-002 0.000000e+000 9.983119e-001
      outer loop
         vertex 4.254380e-001 0.000000e+000 2.412779e+000
         vertex 3.000385e-016 3.000000e+001 2.450000e+000
         vertex 3.000385e-016 0.000000e+000 2.450000e+000
      endloop
   endfacet
   facet normal -5.807913e-002 0.000000e+000 9.983119e-001
      outer loop
         vertex 3.000385e-016 0.000000e+000 2.450000e+000
         vertex 3.000385e-016 3.000000e+001 2.450000e+000
         vertex -4.254380e-001 3.000000e+001 2.412779e+000
      endloop
   endfacet
   facet normal -1.161583e-001 0.000000e+000 9.932307e-001
      outer loop
         vertex 3.000385e-016 0.000000e+000 2.450000e+000
         vertex -4.254380e-001 3.000000e+001 2.412779e+000
         vertex -4.254380e-001 0.000000e+000 2.412779e+000
      endloop
   endfacet
   facet normal -2.305519e-001 0.000000e+000 9.730600e-001
      outer loop
         vertex -4.254380e-001 0.000000e+000 2.412779e+000
         vertex -4.254380e-001 3.000000e+001 2.412779e+000
         vertex -8.379493e-001 3.000000e+001 2.302247e+000
      endloop
   endfacet
   facet normal -2.868663e-001 0.000000e+000 9.579706e-001
      outer loop
         vertex -4.254380e-001 0.000000e+000 2.412779e+000
         vertex -8.379493e-001 3.000000e+001 2.302247e+000
         vertex -8.379493e-001 0.000000e+000 2.302247e+000
      endloop
   endfacet
   facet normal -3.960194e-001 0.000000e+000 9.182422e-001
      outer loop
         vertex -8.379493e-001 0.000000e+000 2.302247e+000
         vertex -8.379493e-001 3.000000e+001 2.302247e+000
         vertex -1.225000e+000 3.000000e+001 2.121762e+000
      endloop
   endfacet
   facet normal -4.488580e-001 0.000000e+000 8.936031e-001
      outer loop
         vertex -8.379493e-001 0.000000e+000 2.302247e+000
         vertex -1.225000e+000 3.000000e+001 2.121762e+000
         vertex -1.225000e+000 0.000000e+000 2.121762e+000
      endloop
   endfacet
   facet normal -5.494540e-001 0.000000e+000 8.355240e-001
      outer loop
         vertex -1.225000e+000 0.000000e+000 2.121762e+000
         vertex -1.225000e+000 3.000000e+001 2.121762e+000
         vertex -1.574830e+000 3.000000e+001 1.876809e+000
      endloop
   endfacet
   facet normal -5.972114e-001 0.000000e+000 8.020838e-001
      outer loop
         vertex -1.225000e+000 0.000000e+000 2.121762e+000
         vertex -1.574830e+000 3.000000e+001 1.876809e+000
         vertex -1.574830e+000 0.000000e+000 1.876809e+000
      endloop
   endfacet
   facet normal -6.861938e-001 0.000000e+000 7.274188e-001
      outer loop
         vertex -1.574830e+000 0.000000e+000 1.876809e+000
         vertex -1.574830e+000 3.000000e+001 1.876809e+000
         vertex -1.876809e+000 3.000000e+001 1.574830e+000
      endloop
   endfacet
   facet normal -7.274188e-001 0.000000e+000 6.861938e-001
      outer loop
         vertex -1.574830e+000 0.000000e+000 1.876809e+000
         vertex -1.876809e+000 3.000000e+001 1.574830e+000
         vertex -1.876809e+000 0.000000e+000 1.574830e+000
      endloop
   endfacet
   facet normal -8.020838e-001 0.000000e+000 5.972114e-001
      outer loop
         vertex -1.876809e+000 0.000000e+000 1.574830e+000
         vertex -1.876809e+000 3.000000e+001 1.574830e+000
         vertex -2.121762e+000 3.000000e+001 1.225000e+000
      endloop
   endfacet
   facet normal -8.355240e-001 0.000000e+000 5.494540e-001
      outer loop
         vertex -1.876809e+000 0.000000e+000 1.574830e+000
         vertex -2.121762e+000 3.000000e+001 1.225000e+000
         vertex -2.121762e+000 0.000000e+000 1.225000e+000
      endloop
   endfacet
   facet normal -8.936031e-001 0.000000e+000 4.488580e-001
      outer loop
         vertex -2.121762e+000 0.000000e+000 1.225000e+000
         vertex -2.121762e+000 3.000000e+001 1.225000e+000
         vertex -2.302247e+000 3.000000e+001 8.379493e-001
      endloop
   endfacet
   facet normal -9.182422e-001 0.000000e+000 3.960194e-001
      outer loop
         vertex -2.121762e+000 0.000000e+000 1.225000e+000
         vertex -2.302247e+000 3.000000e+001 8.379493e-001
         vertex -2.302247e+000 0.000000e+000 8.379493e-001
      endloop
   endfacet
   facet normal -9.579706e-001 0.000000e+000 2.868663e-001
      outer loop
         vertex -2.302247e+000 0.000000e+000 8.379493e-001
         vertex -2.302247e+000 3.000000e+001 8.379493e-001
         vertex -2.412779e+000 3.000000e+001 4.254380e-001
      endloop
   endfacet
   facet normal -9.730600e-001 0.000000e+000 2.305519e-001
      outer loop
         vertex -2.302247e+000 0.000000e+000 8.379493e-001
         vertex -2.412779e+000 3.000000e+001 4.254380e-001
         vertex -2.412779e+000 0.000000e+000 4.254380e-001
      endloop
   endfacet
   facet normal -9.932307e-001 0.000000e+000 1.161583e-001
      outer loop
         vertex -2.412779e+000 0.000000e+000 4.254380e-001
         vertex -2.412779e+000 3.000000e+001 4.254380e-001
         vertex -2.450000e+000 3.000000e+001 4.500577e-016
      endloop
   endfacet
   facet normal -9.983119e-001 0.000000e+000 5.807913e-002
      outer loop
         vertex -2.412779e+000 0.000000e+000 4.254380e-001
         vertex -2.450000e+000 3.000000e+001 4.500577e-016
         vertex -2.450000e+000 0.000000e+000 4.500577e-016
      endloop
   endfacet
   facet normal -9.983119e-001 0.000000e+000 -5.807913e-002
      outer loop
         vertex -2.450000e+000 0.000000e+000 4.500577e-016
         vertex -2.450000e+000 3.000000e+001 4.500577e-016
         vertex -2.412779e+000 3.000000e+001 -4.254380e-001
      endloop
   endfacet
   facet normal -9.932307e-001 0.000000e+000 -1.161583e-001
      outer loop
         vertex -2.450000e+000 0.000000e+000 4.500577e-016
         vertex -2.412779e+000 3.000000e+001 -4.254380e-001
         vertex -2.412779e+000 0.000000e+000 -4.254380e-001
      endloop
   endfacet
   facet normal -9.730600e-001 0.000000e+000 -2.305519e-001
      outer loop
         vertex -2.412779e+000 0.000000e+000 -4.254380e-001
         vertex -2.412779e+000 3.000000e+001 -4.254380e-001
         vertex -2.302247e+000 3.000000e+001 -8.379493e-001
      endloop
   endfacet
   facet normal -9.579706e-001 0.000000e+000 -2.868663e-001
      outer loop
         vertex -2.412779e+000 0.000000e+000 -4.254380e-001
         vertex -2.302247e+000 3.000000e+001 -8.379493e-001
         vertex -2.302247e+000 0.000000e+000 -8.379493e-001
      endloop
   endfacet
   facet normal -9.182422e-001 0.000000e+000 -3.960194e-001
      outer loop
         vertex -2.302247e+000 0.000000e+000 -8.379493e-001
         vertex -2.302247e+000 3.000000e+001 -8.379493e-001
         vertex -2.121762e+000 3.000000e+001 -1.225000e+000
      endloop
   endfacet
   facet normal -8.936031e-001 0.000000e+000 -4.488580e-001
      outer loop
         vertex -2.302247e+000 0.000000e+000 -8.379493e-001
         vertex -2.121762e+000 3.000000e+001 -1.225000e+000
         vertex -2.121762e+000 0.000000e+000 -1.225000e+000
      endloop
   endfacet
   facet normal -8.355240e-001 0.000000e+000 -5.494540e-001
      outer loop
         vertex -2.121762e+000 0.000000e+000 -1.225000e+000
         vertex -2.121762e+000 3.000000e+001 -1.225000e+000
         vertex -1.876809e+000 3.000000e+001 -1.574830e+000
      endloop
   endfacet
   facet normal -8.020838e-001 0.000000e+000 -5.972114e-001
      outer loop
         vertex -2.121762e+000 0.000000e+000 -1.225000e+000
         vertex -1.876809e+000 3.000000e+001 -1.574830e+000
         vertex -1.876809e+000 0.000000e+000 -1.574830e+000
      endloop
   endfacet
   facet normal -7.274188e-001 0.000000e+000 -6.861938e-001
      outer loop
         vertex -1.876809e+000 0.000000e+000 -1.574830e+000
         vertex -1.876809e+000 3.000000e+001 -1.574830e+000
         vertex -1.574830e+000 3.000000e+001 -1.876809e+000
      endloop
   endfacet
   facet normal -6.861938e-001 0.000000e+000 -7.274188e-001
      outer loop
         vertex -1.876809e+000 0.000000e+000 -1.574830e+000
         vertex -1.574830e+000 3.000000e+001 -1.876809e+000
         vertex -1.574830e+000 0.000000e+000 -1.876809e+000
      endloop
   endfacet
   facet normal -5.972114e-001 0.000000e+000 -8.020838e-001
      outer loop
         vertex -1.574830e+000 0.000000e+000 -1.876809e+000
         vertex -1.574830e+000 3.000000e+001 -1.876809e+000
         vertex -1.225000e+000 3.000000e+001 -2.121762e+000
      endloop
   endfacet
   facet normal -5.494540e-001 0.000000e+000 -8.355240e-001
      outer loop
         vertex -1.574830e+000 0.000000e+000 -1.876809e+000
         vertex -1.225000e+000 3.000000e+001 -2.121762e+000
         vertex -1.225000e+000 0.000000e+000 -2.121762e+000
      endloop
   endfacet
   facet normal -4.488580e-001 0.000000e+000 -8.936031e-001
      outer loop
         vertex -1.225000e+000 0.000000e+000 -2.121762e+000
         vertex -1.225000e+000 3.000000e+001 -2.121762e+000
         vertex -8.379493e-001 3.000000e+001 -2.302247e+000
      endloop
   endfacet
   facet normal -3.960194e-001 0.000000e+000 -9.182422e-001
      outer loop
         vertex -1.225000e+000 0.000000e+000 -2.121762e+000
         vertex -8.379493e-001 3.000000e+001 -2.302247e+000
         vertex -8.379493e-001 0.000000e+000 -2.302247e+000
      endloop
   endfacet
   facet normal -2.868663e-001 0.000000e+000 -9.579706e-001
      outer loop
         vertex -8.379493e-001 0.000000e+000 -2.302247e+000
         vertex -8.379493e-001 3.000000e+001 -2.302247e+000
         vertex -4.254380e-001 3.000000e+001 -2.412779e+000
      endloop
   endfacet
   facet normal -2.305519e-001 0.000000e+000 -9.730600e-001
      outer loop
         vertex -8.379493e-001 0.000000e+000 -2.302247e+000
         vertex -4.254380e-001 3.000000e+001 -2.412779e+000
         vertex -4.254380e-001 0.000000e+000 -2.412779e+000
      endloop
   endfacet
   facet normal -1.161583e-001 0.000000e+000 -9.932307e-001
      outer loop
         vertex -4.254380e-001 0.000000e+000 -2.412779e+000
         vertex -4.254380e-001 3.000000e+001 -2.412779e+000
         vertex 0.000000e+000 3.000000e+001 -2.450000e+000
      endloop
   endfacet
   facet normal -5.807913e-002 0.000000e+000 -9.983119e-001
      outer loop
         vertex -4.254380e-001 0.000000e+000 -2.412779e+000
         vertex 0.000000e+000 3.000000e+001 -2.450000e+000
         vertex 0.000000e+000 0.000000e+000 -2.450000e+000
      endloop
   endfacet
   facet normal 5.807913e-002 0.000000e+000 -9.983119e-001
      outer loop
         vertex 0.000000e+000 0.000000e+000 -2.450000e+000
         vertex 0.000000e+000 3.000000e+001 -2.450000e+000
         vertex 4.254380e-001 3.000000e+001 -2.412779e+000
      endloop
   endfacet
   facet normal -5.807913e-002 0.000000e+000 9.983119e-001
      outer loop
         vertex -3.673940e-016 3.000000e+001 -1.500000e+000
         vertex -3.673940e-016 0.000000e+000 -1.500000e+000
         vertex 2.604723e-001 3.000000e+001 -1.477212e+000
      endloop
   endfacet
   facet normal -1.161583e-001 0.000000e+000 9.932307e-001
      outer loop
         vertex 2.604723e-001 3.000000e+001 -1.477212e+000
         vertex -3.673940e-016 0.000000e+000 -1.500000e+000
         vertex 2.604723e-001 0.000000e+000 -1.477212e+000
      endloop
   endfacet
   facet normal -2.305519e-001 0.000000e+000 9.730600e-001
      outer loop
         vertex 2.604723e-001 3.000000e+001 -1.477212e+000
         vertex 2.604723e-001 0.000000e+000 -1.477212e+000
         vertex 5.130302e-001 3.000000e+001 -1.409539e+000
      endloop
   endfacet
   facet normal -2.868663e-001 0.000000e+000 9.579706e-001
      outer loop
         vertex 5.130302e-001 3.000000e+001 -1.409539e+000
         vertex 2.604723e-001 0.000000e+000 -1.477212e+000
         vertex 5.130302e-001 0.000000e+000 -1.409539e+000
      endloop
   endfacet
   facet normal -3.960194e-001 0.000000e+000 9.182422e-001
      outer loop
         vertex 5.130302e-001 3.000000e+001 -1.409539e+000
         vertex 5.130302e-001 0.000000e+000 -1.409539e+000
         vertex 7.500000e-001 3.000000e+001 -1.299038e+000
      endloop
   endfacet
   facet normal -4.488580e-001 0.000000e+000 8.936031e-001
      outer loop
         vertex 7.500000e-001 3.000000e+001 -1.299038e+000
         vertex 5.130302e-001 0.000000e+000 -1.409539e+000
         vertex 7.500000e-001 0.000000e+000 -1.299038e+000
      endloop
   endfacet
   facet normal -5.494540e-001 0.000000e+000 8.355240e-001
      outer loop
         vertex 7.500000e-001 3.000000e+001 -1.299038e+000
         vertex 7.500000e-001 0.000000e+000 -1.299038e+000
         vertex 9.641814e-001 3.000000e+001 -1.149067e+000
      endloop
   endfacet
   facet normal -5.972114e-001 0.000000e+000 8.020838e-001
      outer loop
         vertex 9.641814e-001 3.000000e+001 -1.149067e+000
         vertex 7.500000e-001 0.000000e+000 -1.299038e+000
         vertex 9.641814e-001 0.000000e+000 -1.149067e+000
      endloop
   endfacet
   facet normal -6.861938e-001 0.000000e+000 7.274188e-001
      outer loop
         vertex 9.641814e-001 3.000000e+001 -1.149067e+000
         vertex 9.641814e-001 0.000000e+000 -1.149067e+000
         vertex 1.149067e+000 3.000000e+001 -9.641814e-001
      endloop
   endfacet
   facet normal -7.274188e-001 0.000000e+000 6.861938e-001
      outer loop
         vertex 1.149067e+000 3.000000e+001 -9.641814e-001
         vertex 9.641814e-001 0.000000e+000 -1.149067e+000
         vertex 1.149067e+000 0.000000e+000 -9.641814e-001
      endloop
   endfacet
   facet normal -8.020838e-001 0.000000e+000 5.972114e-001
      outer loop
         vertex 1.149067e+000 3.000000e+001 -9.641814e-001
         vertex 1.149067e+000 0.000000e+000 -9.641814e-001
         vertex 1.299038e+000 3.000000e+001 -7.500000e-001
      endloop
   endfacet
   facet normal -8.355240e-001 0.000000e+000 5.494540e-001
      outer loop
         vertex 1.299038e+000 3.000000e+001 -7.500000e-001
         vertex 1.149067e+000 0.000000e+000 -9.641814e-001
         vertex 1.299038e+000 0.000000e+000 -7.500000e-001
      endloop
   endfacet
   facet normal -8.936031e-001 0.000000e+000 4.488580e-001
      outer loop
         vertex 1.299038e+000 3.000000e+001 -7.500000e-001
         vertex 1.299038e+000 0.000000e+000 -7.500000e-001
         vertex 1.409539e+000 3.000000e+001 -5.130302e-001
      endloop
   endfacet
   facet normal -9.182422e-001 0.000000e+000 3.960194e-001
      outer loop
         vertex 1.409539e+000 3.000000e+001 -5.130302e-001
         vertex 1.299038e+000 0.000000e+000 -7.500000e-001
         vertex 1.409539e+000 0.000000e+000 -5.130302e-001
      endloop
   endfacet
   facet normal -9.579706e-001 0.000000e+000 2.868663e-001
      outer loop
         vertex 1.409539e+000 3.000000e+001 -5.130302e-001
         vertex 1.409539e+000 0.000000e+000 -5.130302e-001
         vertex 1.477212e+000 3.000000e+001 -2.604723e-001
      endloop
   endfacet
   facet normal -9.730600e-001 0.000000e+000 2.305519e-001
      outer loop
         vertex 1.477212e+000 3.000000e+001 -2.604723e-001
         vertex 1.409539e+000 0.000000e+000 -5.130302e-001
         vertex 1.477212e+000 0.000000e+000 -2.604723e-001
      endloop
   endfacet
   facet normal -9.932307e-001 0.000000e+000 1.161583e-001
      outer loop
         vertex 1.477212e+000 3.000000e+001 -2.604723e-001
         vertex 1.477212e+000 0.000000e+000 -2.604723e-001
         vertex 1.500000e+000 3.000000e+001 -9.184851e-017
      endloop
   endfacet
   facet normal -9.983119e-001 0.000000e+000 5.807913e-002
      outer loop
         vertex 1.500000e+000 3.000000e+001 -9.184851e-017
         vertex 1.477212e+000 0.000000e+000 -2.604723e-001
         vertex 1.500000e+000 0.000000e+000 -9.184851e-017
      endloop
   endfacet
   facet normal -9.983119e-001 0.000000e+000 -5.807913e-002
      outer loop
         vertex 1.500000e+000 3.000000e+001 -9.184851e-017
         vertex 1.500000e+000 0.000000e+000 -9.184851e-017
         vertex 1.477212e+000 3.000000e+001 2.604723e-001
      endloop
   endfacet
   facet normal -9.932307e-001 0.000000e+000 -1.161583e-001
      outer loop
         vertex 1.477212e+000 3.000000e+001 2.604723e-001
         vertex 1.500000e+000 0.000000e+000 -9.184851e-017
         vertex 1.477212e+000 0.000000e+000 2.604723e-001
      endloop
   endfacet
   facet normal -9.730600e-001 0.000000e+000 -2.305519e-001
      outer loop
         vertex 1.477212e+000 3.000000e+001 2.604723e-001
         vertex 1.477212e+000 0.000000e+000 2.604723e-001
         vertex 1.409539e+000 3.000000e+001 5.130302e-001
      endloop
   endfacet
   facet normal -9.579706e-001 0.000000e+000 -2.868663e-001
      outer loop
         vertex 1.409539e+000 3.000000e+001 5.130302e-001
         vertex 1.477212e+000 0.000000e+000 2.604723e-001
         vertex 1.409539e+000 0.000000e+000 5.130302e-001
      endloop
   endfacet
   facet normal -9.182422e-001 0.000000e+000 -3.960194e-001
      outer loop
         vertex 1.409539e+000 3.000000e+001 5.130302e-001
         vertex 1.409539e+000 0.000000e+000 5.130302e-001
         vertex 1.299038e+000 3.000000e+001 7.500000e-001
      endloop
   endfacet
   facet normal -8.936031e-001 0.000000e+000 -4.488580e-001
      outer loop
         vertex 1.299038e+000 3.000000e+001 7.500000e-001
         vertex 1.409539e+000 0.000000e+000 5.130302e-001
         vertex 1.299038e+000 0.000000e+000 7.500000e-001
      endloop
   endfacet
   facet normal -8.355240e-001 0.000000e+000 -5.494540e-001
      outer loop
         vertex 1.299038e+000 3.000000e+001 7.500000e-001
         vertex 1.299038e+000 0.000000e+000 7.500000e-001
         vertex 1.149067e+000 3.000000e+001 9.641814e-001
      endloop
   endfacet
   facet normal -8.020838e-001 0.000000e+000 -5.972114e-001
      outer loop
         vertex 1.149067e+000 3.000000e+001 9.641814e-001
         vertex 1.299038e+000 0.000000e+000 7.500000e-001
         vertex 1.149067e+000 0.000000e+000 9.641814e-001
      endloop
   endfacet
   facet normal -7.274188e-001 0.000000e+000 -6.861938e-001
      outer loop
         vertex 1.149067e+000 3.000000e+001 9.641814e-001
         vertex 1.149067e+000 0.000000e+000 9.641814e-001
         vertex 9.641814e-001 3.000000e+001 1.149067e+000
      endloop
   endfacet
   facet normal -6.861938e-001 0.000000e+000 -7.274188e-001
      outer loop
         vertex 9.641814e-001 3.000000e+001 1.149067e+000
         vertex 1.149067e+000 0.000000e+000 9.641814e-001
         vertex 9.641814e-001 0.000000e+000 1.149067e+000
      endloop
   endfacet
   facet normal -5.972114e-001 0.000000e+000 -8.020838e-001
      outer loop
         vertex 9.641814e-001 3.000000e+001 1.149067e+000
         vertex 9.641814e-001 0.000000e+000 1.149067e+000
         vertex 7.500000e-001 3.000000e+001 1.299038e+000
      endloop
   endfacet
   facet normal -5.494540e-001 0.000000e+000 -8.355240e-001
      outer loop
         vertex 7.500000e-001 3.000000e+001 1.299038e+000
         vertex 9.641814e-001 0.000000e+000 1.149067e+000
         vertex 7.500000e-001 0.000000e+000 1.299038e+000
      endloop
   endfacet
   facet normal -4.488580e-001 0.000000e+000 -8.936031e-001
      outer loop
         vertex 7.500000e-001 3.000000e+001 1.299038e+000
         vertex 7.500000e-001 0.000000e+000 1.299038e+000
         vertex 5.130302e-001 3.000000e+001 1.409539e+000
      endloop
   endfacet
   facet normal -3.960194e-001 0.000000e+000 -9.182422e-001
      outer loop
         vertex 5.130302e-001 3.000000e+001 1.409539e+000
         vertex 7.500000e-001 0.000000e+000 1.299038e+000
         vertex 5.130302e-001 0.000000e+000 1.409539e+000
      endloop
   endfacet
   facet normal -2.868663e-001 0.000000e+000 -9.579706e-001
      outer loop
         vertex 5.130302e-001 3.000000e+001 1.409539e+000
         vertex 5.130302e-001 0.000000e+000 1.409539e+000
         vertex 2.604723e-001 3.000000e+001 1.477212e+000
      endloop
   endfacet
   facet normal -2.305519e-001 0.000000e+000 -9.730600e-001
      outer loop
         vertex 2.604723e-001 3.000000e+001 1.477212e+000
         vertex 5.130302e-001 0.000000e+000 1.409539e+000
         vertex 2.604723e-001 0.000000e+000 1.477212e+000
      endloop
   endfacet
   facet normal -1.161583e-001 0.000000e+000 -9.932307e-001
      outer loop
         vertex 2.604723e-001 3.000000e+001 1.477212e+000
         vertex 2.604723e-001 0.000000e+000 1.477212e+000
         vertex 1.836970e-016 3.000000e+001 1.500000e+000
      endloop
   endfacet
   facet normal -5.807913e-002 0.000000e+000 -9.983119e-001
      outer loop
         vertex 1.836970e-016 3.000000e+001 1.500000e+000
         vertex 2.604723e-001 0.000000e+000 1.477212e+000
         vertex 1.836970e-016 0.000000e+000 1.500000e+000
      endloop
   endfacet
   facet normal 5.807913e-002 0.000000e+000 -9.983119e-001
      outer loop
         vertex 1.836970e-016 3.000000e+001 1.500000e+000
         vertex 1.836970e-016 0.000000e+000 1.500000e+000
         vertex -2.604723e-001 3.000000e+001 1.477212e+000
      endloop
   endfacet
   facet normal 1.161583e-001 0.000000e+000 -9.932307e-001
      outer loop
         vertex -2.604723e-001 3.000000e+001 1.477212e+000
         vertex 1.836970e-016 0.000000e+000 1.500000e+000
         vertex -2.604723e-001 0.000000e+000 1.477212e+000
      endloop
   endfacet
   facet normal 2.305519e-001 0.000000e+000 -9.730600e-001
      outer loop
         vertex -2.604723e-001 3.000000e+001 1.477212e+000
         vertex -2.604723e-001 0.000000e+000 1.477212e+000
         vertex -5.130302e-001 3.000000e+001 1.409539e+000
      endloop
   endfacet
   facet normal 2.868663e-001 0.000000e+000 -9.579706e-001
      outer loop
         vertex -5.130302e-001 3.000000e+001 1.409539e+000
         vertex -2.604723e-001 0.000000e+000 1.477212e+000
         vertex -5.130302e-001 0.000000e+000 1.409539e+000
      endloop
   endfacet
   facet normal 3.960194e-001 0.000000e+000 -9.182422e-001
      outer loop
         vertex -5.130302e-001 3.000000e+001 1.409539e+000
         vertex -5.130302e-001 0.000000e+000 1.409539e+000
         vertex -7.500000e-001 3.000000e+001 1.299038e+000
      endloop
   endfacet
   facet normal 4.488580e-001 0.000000e+000 -8.936031e-001
      outer loop
         vertex -7.500000e-001 3.000000e+001 1.299038e+000
         vertex -5.130302e-001 0.000000e+000 1.409539e+000
         vertex -7.500000e-001 0.000000e+000 1.299038e+000
      endloop
   endfacet
   facet normal 5.494540e-001 0.000000e+000 -8.355240e-001
      outer loop
         vertex -7.500000e-001 3.000000e+001 1.299038e+000
         vertex -7.500000e-001 0.000000e+000 1.299038e+000
         vertex -9.641814e-001 3.000000e+001 1.149067e+000
      endloop
   endfacet
   facet normal 5.972114e-001 0.000000e+000 -8.020838e-001
      outer loop
         vertex -9.641814e-001 3.000000e+001 1.149067e+000
         vertex -7.500000e-001 0.000000e+000 1.299038e+000
         vertex -9.641814e-001 0.000000e+000 1.149067e+000
      endloop
   endfacet
   facet normal 6.861938e-001 0.000000e+000 -7.274188e-001
      outer loop
         vertex -9.641814e-001 3.000000e+001 1.149067e+000
         vertex -9.641814e-001 0.000000e+000 1.149067e+000
         vertex -1.149067e+000 3.000000e+001 9.641814e-001
      endloop
   endfacet
   facet normal 7.274188e-001 0.000000e+000 -6.861938e-001
      outer loop
         vertex -1.149067e+000 3.000000e+001 9.641814e-001
         vertex -9.641814e-001 0.000000e+000 1.149067e+000
         vertex -1.149067e+000 0.000000e+000 9.641814e-001
      endloop
   endfacet
   facet normal 8.020838e-001 0.000000e+000 -5.972114e-001
      outer loop
         vertex -1.149067e+000 3.000000e+001 9.641814e-001
         vertex -1.149067e+000 0.000000e+000 9.641814e-001
         vertex -1.299038e+000 3.000000e+001 7.500000e-001
      endloop
   endfacet
   facet normal 8.355240e-001 0.000000e+000 -5.494540e-001
      outer loop
         vertex -1.299038e+000 3.000000e+001 7.500000e-001
         vertex -1.149067e+000 0.000000e+000 9.641814e-001
         vertex -1.299038e+000 0.000000e+000 7.500000e-001
      endloop
   endfacet
   facet normal 8.936031e-001 0.000000e+000 -4.488580e-001
      outer loop
         vertex -1.299038e+000 3.000000e+001 7.500000e-001
         vertex -1.299038e+000 0.000000e+000 7.500000e-001
         vertex -1.409539e+000 3.000000e+001 5.130302e-001
      endloop
   endfacet
   facet normal 9.182422e-001 0.000000e+000 -3.960194e-001
      outer loop
         vertex -1.409539e+000 3.000000e+001 5.130302e-001
         vertex -1.299038e+000 0.000000e+000 7.500000e-001
         vertex -1.409539e+000 0.000000e+000 5.130302e-001
      endloop
   endfacet
   facet normal 9.579706e-001 0.000000e+000 -2.868663e-001
      outer loop
         vertex -1.409539e+000 3.000000e+001 5.130302e-001
         vertex -1.409539e+000 0.000000e+000 5.130302e-001
         vertex -1.477212e+000 3.000000e+001 2.604723e-001
      endloop
   endfacet
   facet normal 9.730600e-001 0.000000e+000 -2.305519e-001
      outer loop
         vertex -1.477212e+000 3.000000e+001 2.604723e-001
         vertex -1.409539e+000 0.000000e+000 5.130302e-001
         vertex -1.477212e+000 0.000000e+000 2.604723e-001
      endloop
   endfacet
   facet normal 9.932307e-001 0.000000e+000 -1.161583e-001
      outer loop
         vertex -1.477212e+000 3.000000e+001 2.604723e-001
         vertex -1.477212e+000 0.000000e+000 2.604723e-001
         vertex -1.500000e+000 3.000000e+001 2.755455e-016
      endloop
   endfacet
   facet normal 9.983119e-001 0.000000e+000 -5.807913e-002
      outer loop
         vertex -1.500000e+000 3.000000e+001 2.755455e-016
         vertex -1.477212e+000 0.000000e+000 2.604723e-001
         vertex -1.500000e+000 0.000000e+000 2.755455e-016
      endloop
   endfacet
   facet normal 9.983119e-001 0.000000e+000 5.807913e-002
      outer loop
         vertex -1.500000e+000 3.000000e+001 2.755455e-016
         vertex -1.500000e+000 0.000000e+000 2.755455e-016
         vertex -1.477212e+000 3.000000e+001 -2.604723e-001
      endloop
   endfacet
   facet normal 9.932307e-001 0.000000e+000 1.161583e-001
      outer loop
         vertex -1.477212e+000 3.000000e+001 -2.604723e-001
         vertex -1.500000e+000 0.000000e+000 2.755455e-016
         vertex -1.477212e+000 0.000000e+000 -2.604723e-001
      endloop
   endfacet
   facet normal 9.730600e-001 0.000000e+000 2.305519e-001
      outer loop
         vertex -1.477212e+000 3.000000e+001 -2.604723e-001
         vertex -1.477212e+000 0.000000e+000 -2.604723e-001
         vertex -1.409539e+000 3.000000e+001 -5.130302e-001
      endloop
   endfacet
   facet normal 9.579706e-001 0.000000e+000 2.868663e-001
      outer loop
         vertex -1.409539e+000 3.000000e+001 -5.130302e-001
         vertex -1.477212e+000 0.000000e+000 -2.604723e-001
         vertex -1.409539e+000 0.000000e+000 -5.130302e-001
      endloop
   endfacet
   facet normal 9.182422e-001 0.000000e+000 3.960194e-001
      outer loop
         vertex -1.409539e+000 3.000000e+001 -5.130302e-001
         vertex -1.409539e+000 0.000000e+000 -5.130302e-001
         vertex -1.299038e+000 3.000000e+001 -7.500000e-001
      endloop
   endfacet
   facet normal 8.936031e-001 0.000000e+000 4.488580e-001
      outer loop
         vertex -1.299038e+000 3.000000e+001 -7.500000e-001
         vertex -1.409539e+000 0.000000e+000 -5.130302e-001
         vertex -1.299038e+000 0.000000e+000 -7.500000e-001
      endloop
   endfacet
   facet normal 8.355240e-001 0.000000e+000 5.494540e-001
      outer loop
         vertex -1.299038e+000 3.000000e+001 -7.500000e-001
         vertex -1.299038e+000 0.000000e+000 -7.500000e-001
         vertex -1.149067e+000 3.000000e+001 -9.641814e-001
      endloop
   endfacet
   facet normal 8.020838e-001 0.000000e+000 5.972114e-001
      outer loop
         vertex -1.149067e+000 3.000000e+001 -9.641814e-001
         vertex -1.299038e+000 0.000000e+000 -7.500000e-001
         vertex -1.149067e+000 0.000000e+000 -9.641814e-001
      endloop
   endfacet
   facet normal 7.274188e-001 0.000000e+000 6.861938e-001
      outer loop
         vertex -1.149067e+000 3.000000e+001 -9.641814e-001
         vertex -1.149067e+000 0.000000e+000 -9.641814e-001
         vertex -9.641814e-001 3.000000e+001 -1.149067e+000
      endloop
   endfacet
   facet normal 6.861938e-001 0.000000e+000 7.274188e-001
      outer loop
         vertex -9.641814e-001 3.000000e+001 -1.149067e+000
         vertex -1.149067e+000 0.000000e+000 -9.641814e-001
         vertex -9.641814e-001 0.000000e+000 -1.149067e+000
      endloop
   endfacet
   facet normal 5.972114e-001 0.000000e+000 8.020838e-001
      outer loop
         vertex -9.641814e-001 3.000000e+001 -1.149067e+000
         vertex -9.641814e-001 0.000000e+000 -1.149067e+000
         vertex -7.500000e-001 3.000000e+001 -1.299038e+000
      endloop
   endfacet
   facet normal 5.494540e-001 0.000000e+000 8.355240e-001
      outer loop
         vertex -7.500000e-001 3.000000e+001 -1.299038e+000
         vertex -9.641814e-001 0.000000e+000 -1.149067e+000
         vertex -7.500000e-001 0.000000e+000 -1.299038e+000
      endloop
   endfacet
   facet normal 4.488580e-001 0.000000e+000 8.936031e-001
      outer loop
         vertex -7.500000e-001 3.000000e+001 -1.299038e+000
         vertex -7.500000e-001 0.000000e+000 -1.299038e+000
         vertex -5.130302e-001 3.000000e+001 -1.409539e+000
      endloop
   endfacet
   facet normal 3.960194e-001 0.000000e+000 9.182422e-001
      outer loop
         vertex -5.130302e-001 3.000000e+001 -1.409539e+000
         vertex -7.500000e-001 0.000000e+000 -1.299038e+000
         vertex -5.130302e-001 0.000000e+000 -1.409539e+000
      endloop
   endfacet
   facet normal 2.868663e-001 0.000000e+000 9.579706e-001
      outer loop
         vertex -5.130302e-001 3.000000e+001 -1.409539e+000
         vertex -5.130302e-001 0.000000e+000 -1.409539e+000
         vertex -2.604723e-001 3.000000e+001 -1.477212e+000
      endloop
   endfacet
   facet normal 2.305519e-001 0.000000e+000 9.730600e-001
      outer loop
         vertex -2.604723e-001 3.000000e+001 -1.477212e+000
         vertex -5.130302e-001 0.000000e+000 -1.409539e+000
         vertex -2.604723e-001 0.000000e+000 -1.477212e+000
      endloop
   endfacet
   facet normal 1.161583e-001 0.000000e+000 9.932307e-001
      outer loop
         vertex -2.604723e-001 3.000000e+001 -1.477212e+000
         vertex -2.604723e-001 0.000000e+000 -1.477212e+000
         vertex -3.673940e-016 3.000000e+001 -1.500000e+000
      endloop
   endfacet
   facet normal 5.807913e-002 0.000000e+000 9.983119e-001
      outer loop
         vertex -3.673940e-016 3.000000e+001 -1.500000e+000
         vertex -2.604723e-001 0.000000e+000 -1.477212e+000
         vertex -3.673940e-016 0.000000e+000 -1.500000e+000
      endloop
   endfacet
endsolid